<svg xmlns="http://www.w3.org/2000/svg" viewBox="0 0 913 928"><defs><style>.cls-1{fill:#3182a5;}.cls-2{fill:#fff;}</style></defs><title>Layer 1</title><g id="Layer_2" data-name="Layer 2"><g id="Layer_1-2" data-name="Layer 1"><ellipse class="cls-1" cx="456.5" cy="464" rx="456.5" ry="464"/><ellipse class="cls-1" cx="456.5" cy="464" rx="380.42" ry="386.67"/><ellipse class="cls-1" cx="456.5" cy="464" rx="304.33" ry="309.33"/><ellipse class="cls-1" cx="456.5" cy="464" rx="228.25" ry="232"/><ellipse class="cls-1" cx="456.5" cy="464" rx="152.17" ry="154.67"/><ellipse class="cls-1" cx="456.5" cy="464" rx="76.08" ry="77.33"/><line class="cls-1" x1="456.27" y1="464" x2="456.27" y2="928"/><line class="cls-1" x1="456.5" y1="464" x2="890.66" y2="607.38"/><line class="cls-1" x1="456.5" y1="464" x2="724.82" y2="88.62"/><line class="cls-1" x1="456.5" y1="464" x2="188.18" y2="88.62"/><line class="cls-1" x1="456.5" y1="464" x2="22.34" y2="607.38"/><path class="cls-2" d="M123.78,636.06q25.29-104.31,55.13-209.14T232,233q14.15-54.67,17.69-80.52t3.55-35.95v-9.12c0-.66,1.34-1,4-1q5.07,0,14.17,2.53a73.79,73.79,0,0,1,17.7,7.6,50.34,50.34,0,0,1,15.18,14.19c4.37,6.07,6.58,13.49,6.58,22.27q0,7.09-12.66,54.7T266.41,325.14q-19.22,69.9-42,152.43t-43,158.51q-5.07,18.23-10.11,39a165.17,165.17,0,0,0-5.06,39v7.09c0,.67-1,1-3,1-2.72,0-6.42-1-11.14-3a50.29,50.29,0,0,1-14.16-9.63q-7.08-6.57-12.14-18.22t-5.06-28.88A136.84,136.84,0,0,1,123.78,636.06Zm217.06,46.21q-14.18-1-20.75-7.08a127.7,127.7,0,0,1-11.62-12.14q-12.17-15.19-11.66-39A221.74,221.74,0,0,1,302.89,577a278.17,278.17,0,0,1,12.65-40.48q7.08-17.2,8.1-19.24t5.56-11.62q4.55-9.62,8.61-17.72,4-9.09-5.58-16.19t-21.75-14.67a136.74,136.74,0,0,1-21.76-16.7c-6.39-6.07-8.6-13.16-6.57-21.25q1-5.07,5.55-15.69t9.63-21.25q5.06-10.62,9.6-19.22t5.58-10.64a17.19,17.19,0,0,1,12.64-8.59,48.78,48.78,0,0,1,17.21,0,30.33,30.33,0,0,1,14.17,6.07q5.55,4.56,2.53,10.61-4.05,8.12-15.19,26.32t-19.22,33.4q-3,5.07,4.55,10.11a165.25,165.25,0,0,0,17.72,10.13,219.13,219.13,0,0,0,28.33,10.12q14.14,7.08,16.18,14.67t0,18.72q-3,10.13-14.67,31.89T354,563.38A286.89,286.89,0,0,0,337.29,614q-5.57,24.79,3.55,41,2,7.08,14.17-2,9.11-8.08,28.33-28.33T439,558.81q14.16-19.21,28.83-41.5t26.83-42q12.13-19.72,28.33-47a11.26,11.26,0,0,1,4-4,10.17,10.17,0,0,1,12.16,0c4,2.7,5.39,5.73,4,9.11l-2,6.06q-17.21,28.37-29.86,49.1T482.51,533q-16.18,23.79-31.36,43-19.23,23.26-34.42,41.48t-27.31,31.38Q357,682.27,340.84,682.27Zm157.54-46.11a46.73,46.73,0,0,1-18.44-25.3,121.3,121.3,0,0,1-5.11-36.44q0-18.21,7.67-47.56t17.93-58.19q10.23-28.83,18.87-51.11T530,392.27q1-1,6.58-1a29.2,29.2,0,0,1,12.14,3.05,29.89,29.89,0,0,1,11.64,10.12q5.07,7.08,5.06,18.21,0,5.06-7.59,26.31T541.6,497q-8.61,26.81-16.19,54.14t-7.58,44.51a124,124,0,0,0,1,13.67q1,8.61,7.1,8.6t17.2-11.13A235,235,0,0,0,566.41,579q12.14-16.69,24.78-35.43T614,509.66Q641.3,468.17,650.39,455t10.13-14.18a15.56,15.56,0,0,1,3.05-4c2.68-2.69,5.39-4.05,8.09-4.05,3.36,0,5.89,1,7.58,3a9.51,9.51,0,0,1,2.53,6.08,16.22,16.22,0,0,1-2,7.08,7.77,7.77,0,0,0-1,3,46.4,46.4,0,0,1-3.55,5.58q-2.54,3.54-8.09,12.14t-15.19,22.76q-9.61,14.19-23.77,35.43Q614,548.13,599.8,569.38a360.22,360.22,0,0,1-28.84,38,233,233,0,0,1-27.83,27.31Q530,645.29,519.85,645.27a25.52,25.52,0,0,1-13.8-3.53A49.83,49.83,0,0,1,498.38,636.16ZM610,302.14a34.22,34.22,0,0,1-22.78-8.09q-9.6-8.12-9.61-22.27,0-21.22,13.66-31.37t23.8-12.14q10.1,0,20.73,8.61t10.63,31.86A46,46,0,0,1,635.83,292Q627.24,302.15,610,302.14Zm-18.16,340.3q12.14-7.08,27.28-15.67t30.34-16.68q15.16-8.08,28.33-15.17t21.25-12.14q-6.09-16.17-12.65-34.87T673.76,511q-6.07-18.18-10.11-35.89a144.06,144.06,0,0,1-4-31.84,112.37,112.37,0,0,1,5.57-35.89,109.21,109.21,0,0,1,14.15-28.82,71,71,0,0,1,19.74-19.22q11.1-7.06,22.25-7.07,19.22,0,22.26,9.11t3,14.14q0,6.09-7,14.67a149.21,149.21,0,0,1-16,16.69q-9,8.08-16,14.65t-7,8.58a264.46,264.46,0,0,0,10,71.28,590.36,590.36,0,0,0,22,65.22,161.44,161.44,0,0,0,44.33-36.91,450.73,450.73,0,0,0,33.41-44.48q14.14-21.72,23.78-37.41t14.67-15.67q11.13,0,11.14,11.13a16.31,16.31,0,0,1-2,7.07q-10.12,15.17-20.75,32.86t-24.28,36.39A314.66,314.66,0,0,1,781,556.5a239.51,239.51,0,0,1-42.39,33.36q9,23.25,9,40.44,0,35.38-32.87,61.69t-84.42,26.28q-27.31,0-45-13.14T567.6,674.8Q567.6,655.59,591.87,642.44Zm4,21.51c-4,3.38-6.06,7.08-6.06,11.13s2.2,7.76,6.58,11.14,11.31,5,20.75,5a117.32,117.32,0,0,0,36.42-5.57,126.05,126.05,0,0,0,30.36-14.15q13.15-8.61,20.75-19.24t7.59-21.76a100.51,100.51,0,0,0-.51-10.11,24.73,24.73,0,0,0-3.53-10.13Q694,616.42,676.82,624t-32.89,15.17q-15.67,7.59-28.84,14.17A202.19,202.19,0,0,0,595.85,664Z"/><text></text></g></g></svg>