<svg xmlns="http://www.w3.org/2000/svg" viewBox="0 0 816.86 615.78"><defs><style>.cls-1{fill:#fff;}</style></defs><title>Asset 1</title><g id="Layer_2" data-name="Layer 2"><g id="Layer_1-2" data-name="Layer 1"><path class="cls-1" d="M80.48,529.68q25.29-104.29,55.13-209.14T188.73,126.6q14.15-54.69,17.69-80.52t3.55-36V1c0-.66,1.34-1,4-1q5.07,0,14.17,2.53a73.82,73.82,0,0,1,17.7,7.61,50.18,50.18,0,0,1,15.18,14.18c4.37,6.08,6.58,13.49,6.58,22.27q0,7.11-12.66,54.7T223.11,218.77q-19.22,69.89-42,152.42t-43,158.51q-5.07,18.22-10.11,39a165.24,165.24,0,0,0-5.06,39v7.09c0,.67-1,1-3,1-2.72,0-6.42-1-11.14-3a50.24,50.24,0,0,1-14.16-9.62q-7.08-6.58-12.14-18.23T77.44,556A136.84,136.84,0,0,1,80.48,529.68Zm217.29,46.21q-14.17-1-20.75-7.08a126.52,126.52,0,0,1-11.62-12.14q-12.16-15.18-11.66-39a221.56,221.56,0,0,1,6.08-47,276.65,276.65,0,0,1,12.66-40.49q7.06-17.21,8.09-19.23t5.56-11.63q4.55-9.6,8.61-17.72c2.69-6.06.83-11.47-5.58-16.18s-13.65-9.61-21.75-14.68A136.74,136.74,0,0,1,245.65,334c-6.39-6.06-8.6-13.16-6.57-21.25q1-5.05,5.55-15.69t9.63-21.25q5.06-10.62,9.61-19.22T269.44,246c2.69-4.72,6.91-7.57,12.64-8.59a48.78,48.78,0,0,1,17.21,0,30.44,30.44,0,0,1,14.17,6.08c3.7,3,4.55,6.58,2.53,10.61q-4,8.1-15.19,26.31T281.58,313.8q-3,5.06,4.55,10.11A165.29,165.29,0,0,0,303.85,334a219,219,0,0,0,28.33,10.13q14.16,7.06,16.19,14.67t0,18.72q-3.06,10.13-14.68,31.89T310.93,457a286,286,0,0,0-16.7,50.59q-5.58,24.8,3.54,41,2,7.08,14.17-2,9.1-8.09,28.33-28.33t55.67-65.78q14.16-19.23,28.83-41.5t26.83-42q12.13-19.74,28.33-47.05a11.37,11.37,0,0,1,4.05-4.05,10.19,10.19,0,0,1,12.15,0c4,2.71,5.39,5.74,4.05,9.11l-2,6.06q-17.2,28.37-29.86,49.1t-28.85,44.51q-16.19,23.79-31.36,43-19.23,23.28-34.42,41.48T346.35,542.5Q314,575.89,297.77,575.89Zm157.54-46.11a46.69,46.69,0,0,1-18.44-25.3,121.23,121.23,0,0,1-5.11-36.43q0-18.21,7.67-47.57t17.93-58.18q10.23-28.83,18.87-51.11t10.67-25.3c.67-.67,2.86-1,6.58-1a29.2,29.2,0,0,1,12.14,3.05,29.92,29.92,0,0,1,11.64,10.13c3.38,4.71,5.06,10.79,5.06,18.2,0,3.37-2.53,12.16-7.59,26.31s-10.47,30.2-16.2,48.08-11.13,35.92-16.19,54.14-7.58,33.05-7.58,44.52a124.33,124.33,0,0,0,1,13.67q1,8.59,7.1,8.59t17.2-11.12a236,236,0,0,0,23.28-27.83q12.13-16.69,24.78-35.42t22.78-33.91q27.33-41.49,36.42-54.64t10.13-14.17a15.43,15.43,0,0,1,3-4.05c2.68-2.69,5.39-4.05,8.09-4.05,3.36,0,5.89,1,7.58,3a9.49,9.49,0,0,1,2.53,6.07,16.22,16.22,0,0,1-2,7.08,7.82,7.82,0,0,0-1,3,46.4,46.4,0,0,1-3.55,5.58q-2.54,3.54-8.09,12.14t-15.19,22.77q-9.62,14.18-23.77,35.42Q570.9,441.75,556.73,463A359.18,359.18,0,0,1,527.89,501a231.43,231.43,0,0,1-27.83,27.31q-13.17,10.65-23.28,10.63a25.43,25.43,0,0,1-13.8-3.53A49.83,49.83,0,0,1,455.31,529.78ZM567,195.76a34.17,34.17,0,0,1-22.79-8.09q-9.6-8.11-9.61-22.26,0-21.24,13.66-31.38T572,121.89q10.1,0,20.73,8.61t10.63,31.86a46,46,0,0,1-10.63,23.28Q584.17,195.77,567,195.76ZM548.8,536.06q12.13-7.08,27.28-15.67t30.34-16.67q15.17-8.09,28.33-15.17T656,476.41q-6.09-16.19-12.65-34.88t-12.66-36.91q-6.08-18.18-10.11-35.89a144,144,0,0,1-4.05-31.84A112.42,112.42,0,0,1,622.1,301a109,109,0,0,1,14.15-28.81A71,71,0,0,1,656,253q11.1-7.08,22.25-7.08,19.21,0,22.26,9.11t3,14.14q0,6.09-7,14.67a148.36,148.36,0,0,1-16,16.69q-9,8.08-16,14.66t-7,8.57a264.41,264.41,0,0,0,10,71.28,589.65,589.65,0,0,0,22,65.22,161.4,161.4,0,0,0,44.33-36.9,450.41,450.41,0,0,0,33.41-44.49q14.16-21.72,23.78-37.4t14.67-15.68q11.13,0,11.14,11.13a16.39,16.39,0,0,1-2,7.08q-10.12,15.16-20.75,32.86T769.8,413.22a313.65,313.65,0,0,1-31.88,36.9,239.51,239.51,0,0,1-42.39,33.36q9,23.25,9,40.44,0,35.39-32.87,61.69t-84.42,26.28q-27.32,0-45-13.14t-17.69-30.33Q524.53,549.21,548.8,536.06Zm4,21.52c-4,3.37-6.06,7.08-6.06,11.12s2.2,7.77,6.58,11.14,11.31,5,20.75,5a117.32,117.32,0,0,0,36.42-5.56,126.07,126.07,0,0,0,30.36-14.16q13.15-8.59,20.75-19.23t7.59-21.77a100.8,100.8,0,0,0-.51-10.11,24.54,24.54,0,0,0-3.53-10.12q-14.19,6.09-31.38,13.67t-32.89,15.17Q585.18,540.37,572,547A199.53,199.53,0,0,0,552.78,557.58Z"/><text></text></g></g></svg>